<svg width="313" height="590" viewBox="0 0 313 590" fill="none" xmlns="http://www.w3.org/2000/svg">
<rect x="340.5" y="-201" width="401.299" height="681" transform="rotate(30 340.5 -201)" fill="white"/>
<rect x="87" y="301" width="310" height="90" transform="rotate(30 87 301)" fill="#C4C4C4"/>
<path d="M128.907 368.02C131.402 369.46 132.57 371.132 131.79 372.483C130.998 373.855 128.978 373.659 126.483 372.219C123.968 370.767 122.788 369.115 123.58 367.743C124.36 366.392 126.392 366.568 128.907 368.02ZM125.223 374.401C129.297 376.753 133.105 376.734 134.617 374.115C136.117 371.517 134.241 368.19 130.167 365.838C126.073 363.474 122.274 363.525 120.774 366.123C119.262 368.742 121.129 372.037 125.223 374.401ZM133.104 380.863L115.77 370.855L114.486 373.079L118.414 375.347L114.802 381.603L117.566 383.199L121.178 376.943L125.024 379.163L121.412 385.419L124.197 387.027L127.809 380.771L131.82 383.087L133.104 380.863ZM139.739 393.368C137.099 391.844 136.077 390.782 136.533 389.993C136.989 389.203 138.407 389.578 141.047 391.102C143.707 392.638 144.742 393.679 144.286 394.469C143.83 395.258 142.399 394.904 139.739 393.368ZM142.211 389.086C138.012 386.662 134.956 386.339 133.768 388.397C132.592 390.434 134.388 392.939 138.587 395.363C142.806 397.799 145.874 398.102 147.05 396.065C148.238 394.007 146.43 391.522 142.211 389.086ZM145.331 386.897L146.015 385.712L151.482 388.868L152.682 386.79L142.082 380.67L142.682 379.631L152.7 385.415L153.852 383.419L143.834 377.635L144.41 376.638L154.864 382.674L156.064 380.595L142.887 372.987L138.159 381.176L143.272 384.128L142.588 385.313L135.313 381.113L134.077 383.254L151.391 393.25L152.627 391.109L145.331 386.897ZM160.074 384.878L158.814 387.06L165.195 390.744C162.352 394.757 158.504 396.526 152.264 396.054L152.45 399.044C161.142 399.684 165.877 396.043 169.261 390.182L160.074 384.878ZM173.344 389.879L162.292 409.021L165.056 410.617L176.108 391.475L173.344 389.879ZM189.396 401.863L185.115 399.391L186.291 397.354L183.526 395.758L182.35 397.795L178.11 395.347L176.874 397.488L188.14 403.992L189.396 401.863ZM177.909 403.904C178.509 402.865 179.685 402.796 180.911 403.504C182.117 404.2 182.665 405.265 182.065 406.304C181.453 407.364 180.257 407.421 179.051 406.725C177.825 406.017 177.297 404.964 177.909 403.904ZM184.684 407.816C185.932 405.655 184.855 403.009 182.111 401.425C179.367 399.841 176.538 400.231 175.29 402.392C174.018 404.595 175.107 407.22 177.851 408.804C180.595 410.388 183.412 410.019 184.684 407.816ZM177.085 409.747L174.341 408.163L171.137 413.713L184.169 421.237L185.429 419.054L175.141 413.114L177.085 409.747ZM190.971 407.871L194.343 402.031L191.6 400.447L183.332 414.767L186.075 416.351L189.663 410.137L192.199 411.601L193.507 409.335L190.971 407.871ZM203.871 430.672L193.56 424.719L194.849 422.486L202.481 420.235C204.421 419.578 205.618 418.857 206.071 418.072C206.438 417.436 206.579 416.872 206.493 416.38C206.407 415.889 206.1 415.491 205.572 415.186C205.051 414.885 204.5 414.864 203.917 415.123C203.338 415.376 202.858 415.833 202.475 416.496L199.045 414.516C199.568 413.609 200.277 412.905 201.172 412.402C202.07 411.892 203.047 411.653 204.102 411.685C205.158 411.717 206.182 412.02 207.177 412.594C208.774 413.516 209.789 414.594 210.222 415.827C210.663 417.065 210.484 418.374 209.687 419.754C209.351 420.336 208.915 420.842 208.378 421.271C207.845 421.694 207.173 422.078 206.361 422.421C205.56 422.761 204.36 423.146 202.759 423.575L199.579 424.676L205.395 428.033L203.871 430.672ZM219.343 431.553C218.191 433.549 216.852 434.829 215.327 435.392C213.809 435.958 212.235 435.771 210.604 434.83C208.96 433.881 208.003 432.602 207.732 430.993C207.461 429.384 207.898 427.588 209.042 425.606L210.601 422.906C211.753 420.91 213.088 419.629 214.606 419.062C216.131 418.499 217.712 418.69 219.35 419.636C220.987 420.581 221.941 421.858 222.212 423.467C222.483 425.076 222.044 426.875 220.896 428.864L219.343 431.553ZM217.733 426.443C218.347 425.38 218.665 424.509 218.688 423.828C218.716 423.14 218.428 422.622 217.826 422.274C217.238 421.934 216.667 421.93 216.115 422.261C215.57 422.596 215.002 423.251 214.412 424.227L212.232 428.002C211.595 429.105 211.267 429.994 211.248 430.668C211.232 431.336 211.526 431.843 212.128 432.191C212.71 432.527 213.282 432.528 213.844 432.194C214.411 431.854 215.004 431.154 215.624 430.096L217.733 426.443ZM231.379 438.502C230.227 440.498 228.889 441.778 227.364 442.341C225.846 442.908 224.271 442.72 222.641 441.779C220.997 440.83 220.039 439.551 219.768 437.942C219.497 436.333 219.934 434.537 221.078 432.555L222.637 429.856C223.789 427.86 225.125 426.578 226.643 426.011C228.168 425.448 229.749 425.639 231.386 426.585C233.023 427.53 233.977 428.807 234.248 430.416C234.519 432.025 234.081 433.824 232.932 435.813L231.379 438.502ZM229.77 433.392C230.383 432.33 230.701 431.458 230.725 430.777C230.752 430.089 230.465 429.571 229.863 429.223C229.274 428.884 228.704 428.879 228.152 429.21C227.607 429.545 227.039 430.2 226.448 431.176L224.269 434.952C223.632 436.054 223.304 436.943 223.284 437.617C223.269 438.285 223.562 438.793 224.164 439.14C224.746 439.476 225.318 439.477 225.881 439.144C226.447 438.803 227.04 438.104 227.661 437.045L229.77 433.392ZM243.416 445.452C242.264 447.447 240.925 448.727 239.4 449.29C237.882 449.857 236.308 449.67 234.677 448.728C233.033 447.779 232.075 446.5 231.805 444.891C231.534 443.282 231.97 441.487 233.115 439.504L234.673 436.805C235.826 434.809 237.161 433.527 238.679 432.96C240.204 432.397 241.785 432.589 243.422 433.534C245.06 434.479 246.014 435.756 246.285 437.365C246.556 438.974 246.117 440.773 244.969 442.762L243.416 445.452ZM241.806 440.341C242.42 439.279 242.738 438.407 242.761 437.726C242.789 437.038 242.501 436.52 241.899 436.173C241.31 435.833 240.74 435.828 240.188 436.159C239.643 436.494 239.075 437.149 238.485 438.126L236.305 441.901C235.668 443.004 235.34 443.892 235.321 444.567C235.305 445.234 235.598 445.742 236.201 446.09C236.782 446.425 237.355 446.427 237.917 446.093C238.484 445.752 239.077 445.053 239.697 443.995L241.806 440.341ZM245.793 450.451C246.335 450.763 246.691 451.185 246.862 451.717C247.037 452.242 246.98 452.755 246.691 453.256C246.402 453.756 245.984 454.066 245.438 454.183C244.896 454.294 244.354 454.193 243.813 453.881C243.265 453.565 242.905 453.14 242.734 452.609C242.57 452.081 242.63 451.57 242.916 451.076C243.201 450.582 243.613 450.274 244.152 450.153C244.698 450.035 245.245 450.134 245.793 450.451ZM261.744 456.034C260.592 458.03 259.254 459.309 257.729 459.872C256.211 460.439 254.636 460.252 253.006 459.31C251.362 458.361 250.404 457.082 250.133 455.473C249.862 453.864 250.299 452.069 251.444 450.086L253.002 447.387C254.154 445.391 255.49 444.109 257.008 443.543C258.533 442.98 260.114 443.171 261.751 444.116C263.388 445.061 264.342 446.338 264.613 447.947C264.884 449.556 264.446 451.355 263.297 453.344L261.744 456.034ZM260.135 450.923C260.748 449.861 261.067 448.989 261.09 448.308C261.117 447.62 260.83 447.102 260.228 446.755C259.639 446.415 259.069 446.41 258.517 446.741C257.972 447.076 257.404 447.731 256.813 448.708L254.634 452.483C253.997 453.586 253.669 454.474 253.649 455.149C253.634 455.816 253.927 456.324 254.529 456.672C255.111 457.007 255.683 457.009 256.246 456.675C256.812 456.334 257.405 455.635 258.026 454.577L260.135 450.923ZM267.615 467.474L264.185 465.494L270.49 454.574L266.552 453.613L268.052 451.015L275.832 452.516L276.147 452.698L267.615 467.474ZM276.158 467.982C276.7 468.294 277.056 468.717 277.227 469.248C277.402 469.773 277.345 470.286 277.056 470.787C276.767 471.288 276.349 471.597 275.803 471.715C275.261 471.826 274.719 471.725 274.178 471.412C273.63 471.096 273.27 470.672 273.099 470.14C272.935 469.612 272.995 469.101 273.281 468.607C273.566 468.113 273.978 467.806 274.517 467.684C275.063 467.566 275.61 467.666 276.158 467.982ZM292.109 473.565C290.957 475.561 289.619 476.84 288.094 477.403C286.576 477.97 285.001 477.783 283.371 476.841C281.727 475.892 280.769 474.613 280.498 473.004C280.227 471.396 280.664 469.6 281.809 467.618L283.367 464.918C284.519 462.922 285.855 461.641 287.373 461.074C288.898 460.511 290.479 460.702 292.116 461.647C293.753 462.593 294.708 463.87 294.978 465.478C295.249 467.087 294.811 468.886 293.662 470.875L292.109 473.565ZM290.5 468.454C291.113 467.392 291.432 466.52 291.455 465.839C291.482 465.151 291.195 464.634 290.593 464.286C290.004 463.946 289.434 463.942 288.882 464.272C288.337 464.607 287.769 465.263 287.178 466.239L284.999 470.014C284.362 471.117 284.034 472.006 284.014 472.68C283.999 473.348 284.292 473.855 284.894 474.203C285.476 474.539 286.048 474.54 286.611 474.206C287.177 473.866 287.77 473.166 288.391 472.108L290.5 468.454ZM297.98 485.006L294.55 483.025L300.855 472.105L296.917 471.144L298.417 468.546L306.197 470.047L306.512 470.229L297.98 485.006Z" fill="#8C8C8C"/>
<path d="M275.768 258.916C282.004 262.516 284.925 266.697 282.945 270.126C280.935 273.608 275.854 273.168 269.618 269.568C263.331 265.938 260.41 261.758 262.42 258.276C264.4 254.847 269.481 255.286 275.768 258.916ZM266.468 275.024C276.653 280.904 286.202 280.806 290.012 274.206C293.762 267.711 289.103 259.34 278.918 253.46C268.682 247.55 259.155 247.731 255.405 254.226C251.595 260.826 256.232 269.114 266.468 275.024ZM286.17 291.18L242.834 266.16L239.654 271.668L257.737 282.108L248.707 297.748L255.566 301.708L264.596 286.068L282.99 296.688L286.17 291.18ZM323.569 286.514C329.804 290.114 332.725 294.295 330.775 297.672C328.795 301.102 323.744 300.61 317.509 297.01C311.222 293.38 308.271 289.252 310.251 285.822C312.201 282.445 317.282 282.884 323.569 286.514ZM314.359 302.466C324.543 308.346 334.062 308.299 337.842 301.752C341.592 295.257 336.903 286.938 326.719 281.058C316.483 275.148 306.986 275.277 303.236 281.772C299.456 288.319 304.123 296.556 314.359 302.466ZM334.061 318.622L290.725 293.602L287.515 299.161L297.336 304.831L288.306 320.472L295.216 324.462L304.246 308.821L313.859 314.371L304.829 330.012L311.792 334.032L320.822 318.391L330.851 324.181L334.061 318.622Z" fill="black"/>
</svg>
